<?xml version="1.0" encoding="utf-8"?>
<!-- Generator: Adobe Illustrator 23.0.1, SVG Export Plug-In . SVG Version: 6.00 Build 0)  -->
<svg version="1.1" id="Layer_1" xmlns="http://www.w3.org/2000/svg" xmlns:xlink="http://www.w3.org/1999/xlink" x="0px" y="0px"
	 viewBox="0 0 100 100" style="enable-background:new 0 0 100 100;" xml:space="preserve">
<style type="text/css">
	.st0{fill:#38F85A;}
</style>
<g>
	<path class="st0" d="M50.1,0c27.9,0.1,50,22.4,49.9,50.1c-0.1,28-22.6,50.1-50.8,49.9C21.8,99.8-0.1,77.4,0,49.8
		C0.1,21.9,22.2-0.1,50.1,0z M49.8,5c-24.7,0.2-45,20.4-45,45c0,24.6,20.8,45.2,45.7,45C75,94.9,95.1,74.4,95,49.7
		C94.9,25.1,74.4,4.8,49.8,5z"/>
	<path class="st0" d="M36.5,72.4c0-15.5,0-29.6,0-44.8C49.1,35.1,60.9,42.3,73.8,50C61.1,57.7,49.3,64.7,36.5,72.4z"/>
</g>
</svg>
